/vscmnt/brussel_pixiu_data/_data_brussel/112/vsc11236/PredSimResults/SUBJ04mtu3D/worker7.mot
version=1
nRows=11
nColumns=50
inDegrees=yes
endheader
                time	         pelvis_tilt	         pelvis_list	     pelvis_rotation	           pelvis_tx	           pelvis_ty	           pelvis_tz	       hip_flexion_r	     hip_adduction_r	      hip_rotation_r	        knee_angle_r	       ankle_angle_r	         mtp_angle_r	       hip_flexion_l	     hip_adduction_l	      hip_rotation_l	        knee_angle_l	       ankle_angle_l	         mtp_angle_l	    lumbar_extension	      lumbar_bending	     lumbar_rotation	 ercspn_r/activation	 intobl_r/activation	 extobl_r/activation	    abd_r/activation	    add_r/activation	hamstrings_r/activation	bifemsh_r/activation	glut_max_r/activation	iliopsoas_r/activation	rect_fem_r/activation	  vasti_r/activation	gastroc_r/activation	 soleus_r/activation	tib_ant_r/activation	 ercspn_l/activation	 intobl_l/activation	 extobl_l/activation	    abd_l/activation	    add_l/activation	hamstrings_l/activation	bifemsh_l/activation	glut_max_l/activation	iliopsoas_l/activation	rect_fem_l/activation	  vasti_l/activation	gastroc_l/activation	 soleus_l/activation	tib_ant_l/activation	
          1.37434649	         -3.02019807	          1.25283837	          8.37133682	          1.29188570	          0.87919243	         -0.01185328	         29.35442450	         -4.02205600	         -8.56800487	         -8.01458297	          5.43689526	          0.23476372	        -12.86104582	          0.46382323	         -7.99571012	         -7.43750827	         10.98962190	         23.86206545	        -14.04918435	         -4.58498838	         -6.64512978	          0.02586519	          0.22931808	          0.01856629	          0.01000000	          0.23127894	          0.09733696	          0.12255551	          0.01638410	          0.16332729	          0.01438169	          0.01000000	          0.02268473	          0.01856591	          0.29888627	          0.01802358	          0.00999999	          0.01000000	          0.05396715	          0.01000007	          0.02327113	          0.13391107	          0.01613419	          0.01000227	          0.01000003	          0.01000000	          0.34287418	          0.19484037	          0.00999999	
          1.38808996	         -3.10394091	          1.28622775	          8.15821273	          1.30832287	          0.87694852	         -0.01135096	         29.38556117	         -3.97989190	         -8.81382220	         -9.79840590	          5.11330564	          0.22485306	        -13.61514368	          0.37281709	         -8.63985230	         -7.93536214	         10.50347193	         25.34818608	        -13.55697084	         -4.00255481	         -6.74567583	          0.02104474	          0.22857954	          0.01510612	          0.02800337	          0.18817583	          0.09035898	          0.09971505	          0.04872137	          0.13288822	          0.01170140	          0.00999999	          0.01845701	          0.01510581	          0.33773735	          0.03129374	          0.00999999	          0.01000002	          0.04390937	          0.01000014	          0.01893423	          0.10895427	          0.01312729	          0.01000001	          0.01000000	          0.01000003	          0.32232193	          0.18723106	          0.00999999	
          1.40183342	         -3.17389277	          1.26003916	          7.89135002	          1.32505866	          0.87503749	         -0.01076299	         29.33981423	         -3.89952266	         -9.05709981	        -11.40808966	          4.60979610	          0.20989772	        -14.23728454	          0.20282816	         -9.31901630	         -8.71687468	          9.90929006	         26.87642803	        -13.04005502	         -3.32936215	         -6.82025746	          0.03841367	          0.18597950	          0.01229081	          0.05336927	          0.20234281	          0.08150797	          0.08113130	          0.09469626	          0.10812203	          0.01000002	          0.02482449	          0.01501721	          0.01229056	          0.35787072	          0.06149090	          0.00999999	          0.00999999	          0.03572604	          0.01000001	          0.01540552	          0.08864863	          0.01068077	          0.01915833	          0.01000079	          0.01000000	          0.29773457	          0.17023742	          0.00999999	
          1.41557689	         -3.22960835	          1.19789632	          7.56860907	          1.34191386	          0.87366310	         -0.01005253	         29.27154745	         -3.79245719	         -9.38712623	        -13.00145403	          4.15345602	          0.19052978	        -14.64641948	         -0.03543501	        -10.03785025	         -9.90634414	          9.16760659	         28.44264081	        -12.52507953	         -2.60078425	         -6.86517574	          0.03689551	          0.15131876	          0.01000019	          0.07554686	          0.21156630	          0.07634548	          0.06601099	          0.08289172	          0.08797148	          0.01000002	          0.07441227	          0.01221847	          0.01000000	          0.38793567	          0.07110316	          0.00999999	          0.00999999	          0.02906783	          0.01000002	          0.01253453	          0.07212732	          0.00999999	          0.01558783	          0.01000007	          0.01000000	          0.25833010	          0.15164270	          0.00999999	
          1.42932035	         -3.27111746	          1.09424727	          7.20603803	          1.35880566	          0.87293301	         -0.00921800	         29.10829384	         -3.64086247	         -9.77582961	        -14.47094335	          3.84890479	          0.16914974	        -14.78673893	         -0.36634998	        -10.78676255	        -11.58776933	          8.26804936	         30.00218719	        -12.02124953	         -1.81784772	         -6.88161644	          0.03033815	          0.12311770	          0.00999999	          0.10215141	          0.20120068	          0.07581924	          0.05370863	          0.07039870	          0.07157636	          0.01000001	          0.11396988	          0.01000001	          0.01000003	          0.39366831	          0.08666855	          0.00999999	          0.00999999	          0.02365050	          0.01000004	          0.01049626	          0.05868506	          0.01000000	          0.01268275	          0.01000002	          0.01467736	          0.21018549	          0.12338127	          0.00999999	
          1.44306382	         -3.29957331	          0.94505341	          6.82136308	          1.37562985	          0.87290783	         -0.00826767	         28.80263247	         -3.41699351	        -10.13604640	        -15.72759801	          3.72212659	          0.15222127	        -14.62959246	         -0.81021802	        -11.55156512	        -13.78959535	          7.20492938	         31.45290503	        -11.53883401	         -0.98185401	         -6.87492062	          0.02468411	          0.10017243	          0.01000000	          0.12557153	          0.18522178	          0.07415456	          0.04369904	          0.06306720	          0.05823678	          0.01000001	          0.14519970	          0.01000004	          0.01000002	          0.39008794	          0.10611934	          0.01000000	          0.01000000	          0.01924279	          0.01000020	          0.06114993	          0.04774801	          0.01168280	          0.01031909	          0.01000000	          0.01856591	          0.17101352	          0.10038688	          0.00999999	
          1.45680728	         -3.31604488	          0.75566602	          6.42868579	          1.39227446	          0.87360403	         -0.00721975	         28.33940978	         -3.10753015	        -10.39008135	        -16.72298680	          3.73201162	          0.14045720	        -14.16693687	         -1.37289820	        -12.32019495	        -16.49816634	          5.95775526	         32.67664598	        -11.08919167	         -0.10328552	         -6.84964040	          0.02008381	          0.08150344	          0.01000001	          0.13879097	          0.18644608	          0.07484248	          0.03555493	          0.05131348	          0.04738327	          0.01000000	          0.16458408	          0.01000044	          0.01051134	          0.37898333	          0.10323687	          0.01210834	          0.01000000	          0.01565654	          0.07389989	          0.07879120	          0.03884929	          0.01229060	          0.01000000	          0.01000000	          0.01510581	          0.13914197	          0.08167792	          0.00999999	
          1.47055075	         -3.32142825	          0.54913992	          6.03619129	          1.40864786	          0.87495852	         -0.00609811	         27.71663162	         -2.73356757	        -10.52928611	        -17.44122102	          3.85054902	          0.13536053	        -13.38769905	         -2.04154788	        -13.09265741	        -19.71094888	          4.52411848	         33.52586931	        -10.68397525	          0.78889373	         -6.80384290	          0.01825460	          0.06631376	          0.01000001	          0.14469646	          0.17552448	          0.07807795	          0.02892862	          0.04175028	          0.03855252	          0.01000000	          0.17686304	          0.01000001	          0.01000000	          0.36174343	          0.10349191	          0.03108096	          0.01000000	          0.01273865	          0.06012753	          0.09189476	          0.03160903	          0.01000003	          0.01000001	          0.01000000	          0.01229057	          0.11321028	          0.06645572	          0.01000001	
          1.48429421	         -3.31592617	          0.35800053	          5.64947987	          1.42467986	          0.87686820	         -0.00491284	         26.94143489	         -2.33545677	        -10.57838071	        -17.89087183	          4.07480032	          0.14152299	        -12.28135672	         -2.80047734	        -13.86787598	        -23.45478736	          3.05456983	         33.59527469	        -10.33398384	          1.65168842	         -6.73015509	          0.01485255	          0.05395496	          0.01000001	          0.15053676	          0.16958694	          0.08009652	          0.02353724	          0.03650177	          0.03136754	          0.01000000	          0.18393015	          0.01000004	          0.01000004	          0.33617844	          0.09826146	          0.03543768	          0.01000000	          0.01036457	          0.11379186	          0.07926916	          0.02571815	          0.01000000	          0.01000001	          0.00999999	          0.00999999	          0.09211144	          0.05407046	          0.02885871	
          1.49803768	         -3.29934166	          0.20990127	          5.26928937	          1.44030186	          0.87922049	         -0.00369122	         26.03022448	         -1.95123608	        -10.55657727	        -18.09147834	          4.37528396	          0.18106206	        -10.84086647	         -3.63826518	        -14.63809378	        -27.76107190	          1.70985424	         32.49689678	        -10.04822616	          2.45205391	         -6.61991055	          0.01208451	          0.04389945	          0.01000001	          0.15500155	          0.15220879	          0.08283279	          0.01915065	          0.04387712	          0.02552162	          0.01000000	          0.17961608	          0.01000002	          0.01000003	          0.31069987	          0.09562420	          0.03334700	          0.01000000	          0.00999999	          0.19363755	          0.06449609	          0.02823071	          0.01000000	          0.01000001	          0.00999999	          0.00999999	          0.07494476	          0.04399343	          0.08082026	
          1.51178114	         -3.27074712	          0.12956685	          4.89177981	          1.45546296	          0.88185749	         -0.00247863	         25.01545358	         -1.62144189	        -10.48877442	        -18.08753893	          4.68769241	          0.26691057	         -9.10605523	         -4.52697848	        -15.38843825	        -32.53504950	          0.54159529	         30.11001668	         -9.83198796	          3.16336307	         -6.46359947	          0.01000000	          0.03571797	          0.01000000	          0.15669166	          0.12384190	          0.08069385	          0.01558158	          0.05853154	          0.02076519	          0.01000000	          0.17342637	          0.01000000	          0.01000001	          0.28816166	          0.10818939	          0.03689466	          0.01142710	          0.00999999	          0.20905412	          0.05247610	          0.02988827	          0.01000000	          0.01000002	          0.00999999	          0.00999999	          0.06097741	          0.03579444	          0.14050991	
